<svg version="1.1" id="Layer_1" xmlns="http://www.w3.org/2000/svg" xmlns:xlink="http://www.w3.org/1999/xlink" x="0px" y="0px"
	 width="100%" viewBox="0 0 1591 733" enable-background="new 0 0 1591 733" xml:space="preserve">
<path fill="#FFFFFF" opacity="1.000000" stroke="none" 
	d="
M800.000000,1.000003 
	C1063.976562,1.000000 1327.953003,1.000000 1591.964844,1.000000 
	C1591.964844,245.288101 1591.964844,489.576202 1591.964844,733.932129 
	C1061.759155,733.932129 531.518188,733.932129 1.138646,733.932129 
	C1.138646,489.780914 1.138646,245.561722 1.138646,1.000000 
	C261.029266,1.000000 521.058716,1.000000 781.415283,1.357226 
	C775.150635,3.240789 769.581238,6.494622 764.894348,11.390358 
	C758.157410,18.427683 757.270325,27.130056 758.064880,36.111404 
	C759.172729,48.634388 764.070007,56.539661 777.690613,61.969082 
	C784.729614,64.774979 792.005859,64.543190 799.366760,63.037388 
	C810.803284,60.697815 819.482666,54.369503 822.583740,43.283367 
	C825.703003,32.132458 826.242981,20.155121 816.527588,11.327694 
	C811.796387,7.028883 805.556763,4.390193 800.000000,1.000003 
M1474.000122,202.504074 
	C1473.334961,193.326340 1472.983032,184.112457 1471.929443,174.979523 
	C1470.444702,162.110764 1466.417969,149.992828 1458.809204,139.380234 
	C1448.948242,125.626411 1436.370972,114.731766 1422.155518,105.648727 
	C1405.203735,94.817413 1386.253052,89.804565 1366.589355,88.232880 
	C1352.188965,87.081879 1337.675171,87.781662 1323.294678,90.868362 
	C1301.269409,95.596001 1281.985352,105.392982 1265.827393,120.860687 
	C1253.723511,132.447296 1244.639893,146.452332 1238.565918,162.074158 
	C1233.304932,175.605453 1229.919678,189.636093 1229.950928,204.390411 
	C1230.071655,261.377625 1230.000000,318.365234 1230.000000,375.352722 
	C1230.000000,377.127441 1230.000000,378.902191 1230.000000,380.709717 
	C1247.595459,380.709717 1264.657471,380.709717 1282.000000,380.709717 
	C1282.000000,378.615082 1282.000000,376.808136 1282.000000,375.001221 
	C1282.000000,326.178619 1282.272339,277.353638 1281.845703,228.534775 
	C1281.704712,212.402145 1283.431396,196.822266 1290.120483,182.173462 
	C1296.949341,167.218506 1306.454102,154.254562 1321.731689,146.757050 
	C1335.525879,139.987427 1350.183350,138.599838 1365.172241,141.128159 
	C1378.650513,143.401657 1390.310547,149.434052 1398.703857,160.425201 
	C1411.618530,177.337143 1416.890259,196.930542 1416.950439,217.924973 
	C1417.100708,270.413025 1417.000000,322.901764 1417.000000,375.390228 
	C1417.000000,377.161377 1417.000000,378.932526 1417.000000,380.696838 
	C1436.288574,380.696838 1455.016968,380.696838 1474.000000,380.696838 
	C1474.000000,321.430237 1474.000000,262.466370 1474.000122,202.504074 
M272.000000,236.500000 
	C272.056427,259.258026 270.952209,282.092102 276.013733,304.545837 
	C281.033386,326.813995 289.680908,347.015472 307.692596,362.289703 
	C330.140900,381.326202 356.637207,389.289886 385.302551,390.804199 
	C395.748230,391.356018 406.356689,390.076416 416.813446,388.927673 
	C444.444885,385.892181 466.568848,372.369385 483.995117,351.315033 
	C502.572784,328.869537 511.574799,302.507446 511.877075,273.501953 
	C512.136719,248.589523 511.169586,223.666870 511.040802,198.747208 
	C510.873749,166.424637 511.000000,134.100555 511.000000,101.777115 
	C511.000000,99.990234 511.000000,98.203354 511.000000,96.242615 
	C493.499146,96.242615 476.438721,96.242615 459.000000,96.242615 
	C459.000000,98.274437 459.000000,100.068954 459.000000,101.863480 
	C459.000000,153.181107 458.928223,204.498886 459.047028,255.816238 
	C459.079468,269.838013 457.550873,283.519531 451.968292,296.484863 
	C446.472961,309.247528 438.777588,320.478180 427.643677,329.027679 
	C415.971771,337.990326 402.608795,339.922852 388.216003,339.138031 
	C369.434235,338.113861 353.544830,331.531250 340.982117,317.453094 
	C330.860352,306.110321 325.262787,292.515930 325.161743,277.544464 
	C324.765991,218.898422 325.000000,160.248138 325.000000,101.599426 
	C325.000000,99.829369 325.000000,98.059319 325.000000,96.305328 
	C307.038391,96.305328 289.644073,96.305328 272.000000,96.305328 
	C272.000000,142.906799 272.000000,189.203400 272.000000,236.500000 
M225.519882,109.013779 
	C215.556366,98.692497 202.287415,96.376045 189.195419,96.224968 
	C140.383575,95.661682 91.561310,96.000000 42.742962,96.000000 
	C41.292740,96.000000 39.842514,96.000000 38.254780,96.000000 
	C38.254780,113.525574 38.254780,130.586090 38.254780,148.117981 
	C83.167274,148.117981 127.827477,148.117981 173.210388,148.117981 
	C168.879730,153.596512 165.082535,158.451843 161.230408,163.263214 
	C151.533112,175.375229 141.761108,187.427734 132.112946,199.578659 
	C122.484520,211.704727 113.024826,223.964813 103.390541,236.086197 
	C93.736687,248.232162 83.931694,260.257874 74.241814,272.375366 
	C62.626396,286.900757 51.214516,301.592041 39.418747,315.968842 
	C32.520828,324.376068 28.178078,333.769043 27.056690,344.482361 
	C24.860710,365.461914 43.173573,380.915466 61.315666,380.954224 
	C119.130989,381.077759 176.946747,381.000000 234.762344,381.000000 
	C236.378845,381.000000 237.995361,381.000000 239.742874,381.000000 
	C239.742874,365.136932 239.742874,349.742706 239.742874,333.878113 
	C190.495651,333.878113 141.503311,333.878113 91.658775,333.878113 
	C99.905991,323.870728 107.545624,314.536926 115.256676,305.262451 
	C122.378365,296.696869 129.636673,288.244507 136.726883,279.653229 
	C147.129089,267.048767 157.403412,254.338821 167.793396,241.724213 
	C174.769699,233.254211 181.898682,224.909973 188.875549,216.440430 
	C199.160934,203.954575 209.317657,191.362549 219.629669,178.898865 
	C229.627670,166.814667 236.059280,153.203430 236.921173,137.428284 
	C237.510559,126.640488 232.979797,117.533897 225.519882,109.013779 
M619.000000,280.500000 
	C619.000000,266.507355 619.227783,252.510071 618.942200,238.523254 
	C618.587097,221.129288 621.899109,204.696350 628.594421,188.544434 
	C639.204956,162.947495 657.585083,147.099030 684.415222,141.095581 
	C691.682190,139.469543 699.227051,139.085342 706.728149,138.120377 
	C706.728149,121.085884 706.728149,103.728416 706.728149,86.481598 
	C699.582397,87.000343 692.692505,87.980713 685.813049,87.911926 
	C663.105957,87.684883 644.524475,96.946083 628.430237,112.138626 
	C625.286560,115.106194 622.559692,118.515388 618.860046,122.578018 
	C618.860046,113.023300 618.860046,104.640152 618.860046,96.312759 
	C601.018127,96.312759 583.626221,96.312759 566.289490,96.312759 
	C566.289490,191.322403 566.289490,286.019012 566.289490,380.691803 
	C583.972656,380.691803 601.364502,380.691803 619.000000,380.691803 
	C619.000000,347.422791 619.000000,314.461395 619.000000,280.500000 
M815.000000,222.500000 
	C815.000000,180.422226 815.000000,138.344452 815.000000,96.316711 
	C797.011108,96.316711 779.618652,96.316711 762.297241,96.316711 
	C762.297241,191.332840 762.297241,286.031982 762.297241,380.683380 
	C779.988708,380.683380 797.381165,380.683380 815.000000,380.683380 
	C815.000000,328.078064 815.000000,275.789032 815.000000,222.500000 
M438.000000,693.351196 
	C438.092743,694.792053 438.185455,696.232910 438.274719,697.619995 
	C443.021667,697.619995 447.402313,697.619995 451.998444,697.619995 
	C451.998444,679.094482 452.067963,660.947388 451.905762,642.802368 
	C451.886658,640.661621 450.906952,638.361694 449.844635,636.425110 
	C442.587585,623.196106 418.274078,621.481201 409.118774,629.471008 
	C405.870605,632.305603 403.492462,632.532715 400.421783,629.139771 
	C398.785126,627.331421 396.109375,625.782593 393.726257,625.472839 
	C388.812714,624.834106 383.755341,624.733948 378.802826,625.075378 
	C366.796478,625.903137 356.344879,636.457581 356.872009,647.900208 
	C357.438721,660.201721 357.000000,672.549622 357.000000,684.877258 
	C357.000000,689.145630 357.000000,693.414001 357.000000,697.612061 
	C362.037292,697.612061 366.418671,697.612061 371.000031,697.612061 
	C371.000031,682.574890 370.824280,667.921387 371.094543,653.276123 
	C371.190186,648.095093 371.901520,642.873596 377.443054,639.847656 
	C388.390930,633.869507 397.104919,640.628906 397.932404,651.784912 
	C398.325653,657.086609 398.000000,662.441711 398.000000,667.772583 
	C398.000031,677.712891 398.000000,687.653259 398.000000,697.652100 
	C402.952820,697.652100 407.335083,697.652100 411.838928,697.652100 
	C411.904724,696.497742 411.991180,695.682800 411.991699,694.867798 
	C412.000885,680.707642 411.919067,666.546814 412.032501,652.387573 
	C412.094330,644.669800 418.008240,637.833496 425.559753,637.373291 
	C432.314362,636.961670 437.996796,644.203735 437.999023,652.396790 
	C438.002625,665.723999 438.000000,679.051208 438.000000,693.351196 
M1067.471680,581.000000 
	C1077.930054,581.688110 1087.257568,579.325989 1094.439087,571.080383 
	C1100.510864,564.108948 1100.786987,551.103638 1093.919556,545.270813 
	C1088.585327,540.740051 1082.371094,539.602478 1075.890259,539.046936 
	C1069.498779,538.499023 1063.049072,538.583252 1056.671265,537.934875 
	C1049.485962,537.204224 1048.030273,533.195984 1052.459473,527.227966 
	C1062.253906,532.480591 1079.688721,531.277893 1086.133789,523.004028 
	C1089.222168,519.039490 1091.146973,513.478455 1091.708374,508.430206 
	C1092.266113,503.414703 1090.451782,498.135498 1089.681885,492.999786 
	C1090.956055,492.999786 1093.302612,492.822784 1095.612061,493.039764 
	C1099.425537,493.398041 1099.947510,491.038910 1099.995728,488.160919 
	C1100.047607,485.062378 1099.510742,482.895630 1095.432983,482.903595 
	C1088.345703,482.917450 1081.259888,482.250824 1074.168457,482.029419 
	C1069.343140,481.878754 1064.451660,481.531647 1059.693726,482.116913 
	C1053.432129,482.887177 1047.739624,485.394043 1044.031006,490.919495 
	C1038.239258,499.548370 1037.808228,508.576874 1041.873779,518.109741 
	C1042.580688,519.767395 1042.158569,522.447205 1041.277832,524.147156 
	C1037.593384,531.259399 1035.520630,538.023621 1042.029053,544.816711 
	C1042.640381,545.454590 1041.848267,548.634949 1040.787109,549.483398 
	C1033.775024,555.089783 1033.392578,571.244080 1042.370972,576.382507 
	C1050.232056,580.881470 1058.175293,580.955322 1067.471680,581.000000 
M1029.473633,150.000000 
	C1032.302856,149.999527 1035.138672,149.879089 1037.959717,150.031052 
	C1041.007202,150.195206 1042.043823,148.890213 1042.037354,145.906876 
	C1041.973755,116.282990 1041.985962,86.658897 1042.015747,57.034912 
	C1042.019409,53.471420 1040.365234,51.941696 1036.850708,51.979347 
	C1030.028076,52.052448 1023.197144,52.185844 1016.382751,51.936207 
	C1011.671997,51.763630 1009.856506,53.516567 1009.928833,58.300903 
	C1010.132629,71.778412 1010.000000,85.261017 1010.000000,98.741608 
	C1010.000000,113.220757 1009.998779,127.699913 1010.000427,142.179062 
	C1010.001343,149.999573 1010.003540,149.999634 1017.998718,149.999985 
	C1021.493713,150.000137 1024.988647,150.000000 1029.473633,150.000000 
M1114.659424,168.079285 
	C1108.830688,171.705841 1102.902954,175.188782 1097.254517,179.077240 
	C1096.092285,179.877380 1094.986328,182.734573 1095.529663,183.720428 
	C1099.386963,190.720428 1103.573364,197.548721 1107.892578,204.279205 
	C1109.384399,206.603882 1111.057007,207.777176 1114.356201,205.499924 
	C1121.327271,200.688416 1128.893066,196.743896 1136.171875,192.372192 
	C1154.087769,181.611877 1171.934326,170.735138 1189.918945,160.091354 
	C1193.483765,157.981659 1193.324829,155.921829 1191.422607,152.900711 
	C1187.770996,147.101288 1184.116455,141.290222 1180.802979,135.296173 
	C1178.693359,131.480255 1176.599731,131.170227 1172.940552,133.395844 
	C1153.826660,145.021072 1134.582642,156.432037 1114.659424,168.079285 
M945.492737,131.961334 
	C951.988647,142.937485 958.614929,153.839676 964.906494,164.931763 
	C966.981445,168.590073 968.926880,170.183151 972.914612,167.622635 
	C978.004333,164.354492 983.162842,161.168884 988.461792,158.257339 
	C994.903931,154.717697 995.364563,153.422394 991.711304,147.328415 
	C983.134338,133.021301 974.616150,118.678963 966.075439,104.350105 
	C960.050598,94.242142 954.010559,84.143150 948.016968,74.016663 
	C946.592529,71.610138 945.141541,70.053276 942.112061,71.944832 
	C935.734192,75.927063 929.349792,79.920235 922.769165,83.548096 
	C919.088501,85.577271 919.435486,87.762352 921.213196,90.763649 
	C929.209778,104.264565 937.131287,117.809868 945.492737,131.961334 
M1096.518677,146.950790 
	C1100.338257,140.475235 1104.119019,133.976517 1107.985596,127.529160 
	C1115.298584,115.335136 1122.710693,103.200310 1129.967407,90.973015 
	C1131.769409,87.936485 1131.773193,85.341431 1127.902344,83.309036 
	C1122.563477,80.505806 1117.508301,77.146698 1112.416504,73.892662 
	C1106.481323,70.099632 1105.461426,70.382034 1101.899780,76.336174 
	C1095.606812,86.856071 1089.119751,97.259598 1082.777832,107.750473 
	C1074.491577,121.457901 1066.217773,135.173401 1058.056274,148.955093 
	C1056.297119,151.925735 1056.114136,154.583344 1060.010254,156.678131 
	C1065.613525,159.690781 1070.918457,163.267822 1076.290649,166.698013 
	C1080.840576,169.603195 1083.065796,169.094864 1085.931763,164.297974 
	C1089.282593,158.689621 1092.649048,153.090561 1096.518677,146.950790 
M799.999939,680.912292 
	C799.908203,679.679810 799.816406,678.447327 799.666687,676.436401 
	C798.073364,677.755432 797.196167,678.702026 796.129700,679.324768 
	C792.231506,681.601135 788.465637,685.091003 784.292725,685.708130 
	C775.138306,687.061951 766.602478,683.647461 761.298767,676.176453 
	C755.384766,667.846008 755.410828,658.325134 761.102112,649.462646 
	C766.799988,640.589966 778.139404,636.629944 788.889038,639.413879 
	C798.506042,641.904480 802.999878,647.792664 803.000000,657.903625 
	C803.000122,664.730835 803.000000,671.558105 803.000000,678.385315 
	C803.000000,684.816284 803.000000,691.247192 803.000000,697.615967 
	C808.699341,697.615967 813.750793,697.615967 818.998352,697.615967 
	C818.998352,683.089478 819.356140,668.933533 818.867188,654.806946 
	C818.563049,646.021301 814.285645,638.767578 807.620483,632.843201 
	C797.117859,623.507874 784.390564,624.386719 771.962830,625.352539 
	C767.038696,625.735229 761.605042,628.080688 757.670837,631.154602 
	C743.510498,642.218811 740.580994,658.130859 744.627686,674.151428 
	C750.225769,696.313782 771.555603,703.994446 791.581482,698.093079 
	C799.825562,695.663513 799.999878,695.207153 800.000000,686.807251 
	C800.000061,685.142090 800.000000,683.476868 799.999939,680.912292 
M921.497070,222.000000 
	C917.333313,222.000000 913.169556,221.999985 909.005798,222.000000 
	C888.020386,222.000031 867.035034,222.005051 846.049622,221.993683 
	C843.483398,221.992294 840.912354,221.682922 840.972168,225.587402 
	C841.084595,232.913910 840.731873,240.261658 841.221008,247.557098 
	C841.326599,249.131760 844.165527,251.795105 845.764160,251.809082 
	C875.241394,252.066895 904.721436,251.993408 934.200928,252.004440 
	C937.510315,252.005676 939.024048,250.380402 939.008728,247.108490 
	C938.976013,240.113510 938.915161,233.116806 939.038330,226.123840 
	C939.090454,223.162292 938.060425,221.848312 934.984863,221.962860 
	C930.826904,222.117737 926.658752,222.000488 921.497070,222.000000 
M911.613281,153.917297 
	C901.272217,147.643402 890.923462,141.382095 880.595154,135.087265 
	C877.806946,133.387955 875.636047,133.093918 873.702759,136.521149 
	C870.573303,142.068909 867.170654,147.473541 863.660217,152.791351 
	C861.473328,156.104080 861.659912,158.068787 865.406677,160.244766 
	C876.145569,166.481644 886.614929,173.180862 897.234619,179.625244 
	C911.763916,188.442184 926.344543,197.174484 940.877686,205.985107 
	C943.688049,207.688843 945.632629,207.155579 947.244019,204.286469 
	C949.725464,199.868027 952.430542,195.575790 954.952026,191.179138 
	C959.955688,182.454254 959.823059,182.622879 950.946594,177.403549 
	C937.986145,169.782837 925.198547,161.868179 911.613281,153.917297 
M969.492004,362.039429 
	C977.029846,349.225891 984.602966,336.432861 992.076538,323.582001 
	C993.630249,320.910400 993.893799,318.516388 990.394287,316.643768 
	C985.070068,313.794739 979.977783,310.508789 974.816162,307.360565 
	C971.086731,305.085846 968.754333,305.847565 966.496826,309.826111 
	C958.917053,323.184448 950.919861,336.305267 943.160461,349.562622 
	C936.310852,361.265564 929.532776,373.010864 922.802490,384.782837 
	C921.488464,387.081116 921.119019,389.361328 924.071899,391.044250 
	C929.752686,394.281891 935.359924,397.649384 940.975403,401.000427 
	C943.982422,402.794830 946.231262,402.166168 947.974854,399.141052 
	C954.989624,386.969818 962.041504,374.819946 969.492004,362.039429 
M1132.955811,282.487732 
	C1126.599854,278.799866 1120.235352,275.126740 1113.891846,271.417450 
	C1111.042603,269.751343 1108.246460,268.955994 1106.247070,272.453125 
	C1103.005737,278.122406 1099.932007,283.887726 1096.811523,289.625610 
	C1095.057007,292.851929 1095.749878,295.121796 1099.242798,296.733032 
	C1102.795166,298.371674 1106.219727,300.311432 1109.607300,302.279572 
	C1131.351929,314.913818 1153.054932,327.619873 1174.820679,340.217682 
	C1177.306152,341.656311 1179.573853,341.733948 1181.311279,338.465057 
	C1184.142944,333.137238 1187.434937,328.052124 1190.581665,322.894409 
	C1192.810669,319.241089 1192.324707,316.850891 1188.258423,314.556213 
	C1169.912109,304.203217 1151.736816,293.546967 1132.955811,282.487732 
M1037.098022,325.012329 
	C1028.833496,325.012329 1020.569092,325.012329 1012.006348,325.012329 
	C1012.006348,356.965607 1012.021240,388.268524 1011.982849,419.571350 
	C1011.979065,422.653809 1013.754883,423.043549 1016.212158,423.019592 
	C1022.543701,422.957886 1028.882935,422.825073 1035.206055,423.065521 
	C1038.960327,423.208313 1040.078857,421.828156 1040.064453,418.151062 
	C1039.949097,388.656891 1040.029541,359.161896 1039.915894,329.667725 
	C1039.910034,328.136353 1038.683594,326.609680 1037.098022,325.012329 
M1166.500000,223.000000 
	C1148.747070,223.000000 1130.994141,223.000000 1113.000000,223.000000 
	C1113.000000,230.881729 1113.273193,238.047119 1112.902710,245.179077 
	C1112.660156,249.847595 1114.192627,251.133194 1118.825562,251.100983 
	C1147.654785,250.900558 1176.486206,251.003845 1205.316895,250.988556 
	C1206.760620,250.987793 1208.204224,250.821075 1209.495117,250.741089 
	C1210.013306,243.653763 1210.552979,236.925293 1210.983765,230.189865 
	C1211.379150,224.003708 1210.368652,223.005844 1203.996704,223.002075 
	C1191.831177,222.994904 1179.665527,223.000000 1166.500000,223.000000 
M1088.922119,318.668304 
	C1087.603638,316.406708 1086.298584,314.137024 1084.963013,311.885559 
	C1083.413086,309.272827 1081.560059,308.013702 1078.464233,309.860016 
	C1073.273926,312.955322 1067.945312,315.818146 1062.699341,318.821350 
	C1059.813477,320.473358 1059.010742,322.446991 1061.017090,325.614044 
	C1064.425293,330.994080 1067.431396,336.628815 1070.605957,342.156860 
	C1082.079468,362.135773 1093.576050,382.101562 1105.000977,402.108307 
	C1106.664673,405.021820 1108.626953,405.554413 1111.465332,403.862244 
	C1115.958740,401.183380 1120.456299,398.501129 1125.059448,396.019318 
	C1130.227295,393.232941 1130.740356,391.531372 1127.822266,386.490570 
	C1114.884277,364.140289 1101.993042,341.762848 1088.922119,318.668304 
M442.000000,527.500000 
	C442.000000,520.001709 442.128906,512.500549 441.966858,505.005768 
	C441.771149,495.955017 438.749115,487.946167 430.055054,484.167480 
	C420.980957,480.223663 411.649689,480.379883 403.061218,486.395508 
	C401.763733,487.304352 400.128967,487.731720 397.000000,489.107208 
	C397.000000,477.373627 396.720520,467.136841 397.118774,456.926514 
	C397.315765,451.876068 395.491455,450.701782 390.838104,450.878296 
	C386.627106,451.037994 383.790619,450.810394 383.853882,456.737885 
	C384.172272,486.560974 384.000000,516.389282 384.000031,546.215759 
	C384.000061,554.065491 384.009552,553.811584 391.790497,554.099670 
	C396.133789,554.260498 397.158691,552.675232 397.080780,548.624695 
	C396.853333,536.798401 397.351166,524.950195 396.852905,513.140625 
	C396.601166,507.174255 398.673981,503.032104 403.014496,499.426025 
	C407.743835,495.496887 412.879730,492.786224 419.184052,494.149719 
	C425.083557,495.425629 428.946747,501.800537 428.986450,509.858948 
	C429.040649,520.856201 428.880554,531.855469 429.031128,542.850891 
	C429.208038,555.768127 426.551239,553.858826 440.428772,553.957031 
	C440.870575,553.960144 441.314392,553.680298 442.000000,553.451172 
	C442.000000,545.112305 442.000000,536.806152 442.000000,527.500000 
M949.508423,277.039551 
	C949.074707,276.535919 948.514343,276.095612 948.226196,275.519226 
	C943.667236,266.400604 943.256042,268.063232 936.020264,272.430695 
	C928.680359,276.861084 921.264709,281.165833 913.908325,285.569275 
	C897.220093,295.558716 880.620361,305.699402 863.810669,315.479584 
	C860.277588,317.535217 860.564270,319.603333 862.128296,322.291504 
	C865.006531,327.238525 867.985596,332.129120 871.023132,336.980347 
	C872.560852,339.436310 874.051636,340.437653 877.303894,338.463898 
	C902.590820,323.117706 928.027588,308.017670 953.477600,292.942139 
	C956.455872,291.177979 956.786011,289.331146 955.073608,286.569427 
	C953.267151,283.655945 951.631165,280.636780 949.508423,277.039551 
M58.954582,693.512390 
	C65.646507,687.334229 66.172798,670.614502 57.816280,664.125671 
	C50.052437,658.097046 41.118874,655.500000 31.988632,652.940430 
	C28.720066,652.024109 25.450678,650.744385 22.556026,649.006836 
	C20.984083,648.063232 19.087448,645.605713 19.345350,644.199219 
	C19.653492,642.518677 21.880453,640.475159 23.681217,639.932434 
	C27.387951,638.815308 31.351833,638.200134 35.231548,638.080322 
	C43.668484,637.820007 52.119003,638.000000 60.667664,638.000000 
	C60.667664,633.743713 60.667664,630.028320 60.667664,626.005310 
	C48.368328,626.005310 36.377472,625.594055 24.439009,626.205688 
	C19.596319,626.453796 14.044105,627.813354 10.249618,630.612427 
	C0.791583,637.589172 1.834150,654.665222 11.913962,660.815308 
	C17.109539,663.985229 23.230194,665.632996 28.918451,668.003052 
	C35.011482,670.541809 41.420773,672.557312 47.051739,675.884705 
	C50.684433,678.031433 49.943508,681.888611 45.996449,683.349609 
	C43.052574,684.439270 39.666698,684.639709 36.469795,684.685242 
	C25.764677,684.837830 15.056037,684.743164 4.382960,684.743164 
	C4.382960,689.359924 4.382960,694.078308 4.382960,699.000000 
	C16.747711,699.000000 28.730928,699.035461 40.713791,698.985535 
	C47.040401,698.959229 53.028610,697.612061 58.954582,693.512390 
M899.041199,503.876160 
	C897.618591,512.071472 896.241272,520.133179 897.859802,528.624695 
	C900.165955,540.723938 905.441772,550.266541 917.806824,553.715393 
	C923.214172,555.223633 929.203003,554.876465 934.933167,554.949890 
	C946.808533,555.101990 958.119812,546.724670 962.027649,535.461182 
	C965.206909,526.297424 965.755066,517.083313 964.075806,507.518433 
	C962.065063,496.065826 956.785950,487.246918 945.241089,483.878845 
	C940.019531,482.355499 934.300049,482.443298 928.789307,482.026276 
	C916.430725,481.091095 903.276794,489.933777 899.041199,503.876160 
M728.000000,521.313232 
	C727.667053,516.726929 727.565063,512.109741 726.955872,507.560486 
	C725.408508,496.006226 719.787781,487.188171 708.212463,483.873169 
	C702.661499,482.283417 696.585327,482.362000 690.727539,482.049255 
	C682.596619,481.615143 675.661926,484.928314 670.115173,490.513794 
	C660.414368,500.282349 659.268433,512.809204 660.388245,525.617798 
	C661.010010,532.730042 663.387756,539.346313 667.728516,545.359863 
	C676.397461,557.369263 699.226440,556.741699 708.715576,552.655884 
	C721.978516,546.945251 726.604065,535.579773 728.000000,521.313232 
M145.279617,543.761597 
	C133.265518,539.225952 131.756516,531.777832 131.377197,521.000000 
	C133.026825,521.000000 134.666946,521.000000 136.307068,521.000000 
	C148.634262,521.000000 160.961472,521.005981 173.288666,520.997437 
	C179.597046,520.993103 180.099686,520.575928 179.954376,514.080383 
	C179.877853,510.659088 179.624039,507.188354 178.940140,503.844299 
	C177.046600,494.585541 172.590179,486.777771 163.149139,483.898712 
	C157.650360,482.221802 151.543777,482.216675 145.695892,482.076965 
	C135.404526,481.831116 124.800575,489.983154 120.896637,499.630096 
	C116.957870,509.363037 116.446465,519.330872 118.138344,529.343628 
	C119.847473,539.458374 124.183624,548.125488 134.678452,552.287964 
	C145.709488,556.663086 156.766174,555.709717 167.883331,553.037415 
	C177.167725,550.805725 177.989624,549.494934 176.316406,539.233826 
	C171.467484,540.682190 166.818954,542.625488 161.986343,543.363586 
	C156.791519,544.157043 151.423965,543.819458 145.279617,543.761597 
M1288.728760,482.988983 
	C1279.298950,485.649719 1273.153442,491.636810 1269.542969,500.782776 
	C1265.812134,510.233307 1265.342285,519.951538 1267.167114,529.588074 
	C1269.676514,542.839722 1275.369019,550.952087 1288.944580,553.967651 
	C1298.339233,556.054626 1307.776123,555.576599 1317.153442,553.082031 
	C1325.984497,550.732910 1327.384399,548.770813 1325.157471,539.517090 
	C1322.346802,540.232117 1319.400635,540.603516 1316.773682,541.723572 
	C1309.990967,544.615662 1302.788086,544.814148 1295.903931,543.794800 
	C1285.501343,542.254333 1280.485718,534.645142 1280.278198,521.000000 
	C1281.916382,521.000000 1283.551514,521.000000 1285.186523,521.000000 
	C1297.847534,521.000000 1310.511719,521.140747 1323.166138,520.852417 
	C1325.124756,520.807678 1328.584839,518.961121 1328.722046,517.668823 
	C1329.612793,509.279236 1328.566650,500.955231 1324.026123,493.643372 
	C1316.507690,481.535980 1304.499512,480.483490 1288.728760,482.988983 
M542.527466,499.982666 
	C547.274231,495.455444 552.781555,492.702393 559.421082,494.238525 
	C565.350281,495.610321 568.969360,501.978210 568.990723,510.097198 
	C569.025269,523.252075 568.916321,536.408447 569.116211,549.560364 
	C569.138855,551.047180 570.576294,553.594238 571.674438,553.780334 
	C574.991394,554.342468 578.464539,553.983398 581.999756,553.983398 
	C581.999756,536.459351 582.419678,519.631348 581.733582,502.848480 
	C581.538025,498.064117 578.751648,493.017090 576.065552,488.780212 
	C570.549622,480.079834 551.797058,479.812988 543.692627,485.801880 
	C541.332153,487.546173 538.872131,489.155884 536.112915,491.066010 
	C535.873108,482.054810 535.645508,481.922638 524.000000,483.524994 
	C524.000000,489.921021 524.000000,496.377869 524.000000,502.834717 
	C524.000000,518.154480 524.154419,533.476746 523.901428,548.792297 
	C523.829956,553.121216 525.324158,554.573975 529.368958,554.012695 
	C530.022461,553.921997 530.711243,553.918335 531.363464,554.013245 
	C535.617188,554.632080 537.220032,553.114563 537.103577,548.559143 
	C536.797302,536.577576 537.229614,524.576599 536.891296,512.596741 
	C536.748169,507.527130 537.973816,503.550934 542.527466,499.982666 
M1466.380127,699.000000 
	C1468.145874,699.000000 1469.911743,699.000000 1471.642212,699.000000 
	C1471.642212,693.623535 1471.642212,688.902039 1471.642212,684.996399 
	C1465.682129,684.996399 1460.085205,685.155273 1454.501587,684.951233 
	C1449.015747,684.750854 1446.244019,682.521851 1446.118896,677.286743 
	C1445.817627,664.680603 1446.021362,652.062378 1446.021362,638.899048 
	C1455.242310,638.899048 1463.971924,638.899048 1472.603027,638.899048 
	C1472.603027,634.283569 1472.603027,630.232605 1472.603027,625.811279 
	C1463.606079,625.811279 1455.003784,625.811279 1445.854614,625.811279 
	C1445.854614,619.713074 1445.854614,613.986023 1445.854614,608.241760 
	C1440.694336,608.241760 1436.094238,608.241760 1431.000000,608.241760 
	C1431.000000,610.249634 1431.000000,612.041504 1431.000000,613.833374 
	C1431.000000,634.163940 1430.881226,654.495728 1431.098022,674.823975 
	C1431.142578,679.005188 1431.787598,683.432251 1433.316528,687.285522 
	C1435.541870,692.893921 1439.160034,697.666931 1446.124512,698.015930 
	C1452.553223,698.338074 1458.981201,698.671570 1466.380127,699.000000 
M1407.929810,513.402283 
	C1410.576294,515.589050 1412.954590,518.292480 1415.933472,519.838989 
	C1420.194702,522.051331 1424.899658,523.405273 1429.406372,525.148926 
	C1433.778198,526.840454 1438.414062,532.684753 1437.751343,535.629883 
	C1436.573853,540.863831 1432.216919,543.765015 1426.119507,544.063477 
	C1420.040649,544.360840 1414.478271,543.287659 1409.205078,540.142334 
	C1407.581787,539.174011 1405.369995,539.192261 1403.343628,538.740051 
	C1402.390625,550.647705 1402.339722,551.165955 1412.818726,553.837891 
	C1418.127686,555.191589 1423.919556,555.008850 1429.483887,554.923828 
	C1438.624023,554.784058 1449.338135,549.218689 1450.844238,536.695129 
	C1452.026855,526.861694 1447.987305,519.597717 1436.709351,514.980652 
	C1431.506226,512.850525 1426.457397,510.345764 1421.318726,508.055237 
	C1417.284790,506.257050 1416.194458,502.683929 1417.193359,499.071930 
	C1418.173096,495.528290 1421.293335,493.286469 1425.159668,493.045715 
	C1430.586548,492.707794 1435.932373,492.854797 1440.867188,495.882599 
	C1442.457275,496.858215 1444.687378,496.790680 1446.702515,497.216797 
	C1447.455688,486.342072 1445.572632,483.310394 1436.721680,482.134094 
	C1431.974854,481.503235 1426.982422,481.390778 1422.264282,482.112976 
	C1405.105713,484.739349 1399.557373,500.480774 1407.929810,513.402283 
M282.035126,493.002014 
	C289.098022,491.998383 295.153809,494.386108 300.865723,498.317719 
	C302.431549,499.395508 304.498840,499.744690 306.369598,500.440735 
	C309.186859,491.237488 307.918701,489.072479 300.503937,484.753326 
	C294.284088,481.130188 287.760559,481.952087 281.287842,482.087036 
	C272.818665,482.263641 265.866943,486.016571 261.036438,493.024811 
	C254.292770,502.808655 253.282410,514.078064 254.169586,525.402466 
	C254.761581,532.958984 257.092865,540.231384 261.952606,546.492615 
	C271.316254,558.556519 295.423370,557.085754 305.602783,548.850342 
	C308.094666,546.834412 309.293762,538.521973 307.287964,536.935852 
	C303.924774,534.276306 301.656158,537.501953 299.125488,538.990051 
	C298.429443,539.399292 297.827545,539.974731 297.118805,540.355469 
	C288.260864,545.113647 274.468292,545.102356 270.532959,532.687378 
	C268.505951,526.292786 267.766907,519.087952 268.283051,512.390869 
	C268.926086,504.047424 271.657532,495.981140 282.035126,493.002014 
M47.000538,551.416443 
	C48.560135,547.978760 48.538830,544.824829 45.538570,542.251099 
	C44.034515,542.827454 42.724468,543.490051 41.335514,543.834900 
	C33.778381,545.711487 28.354160,542.550598 28.130140,535.187988 
	C27.706425,521.262207 28.007658,507.314453 28.007658,493.096985 
	C34.422714,493.096985 40.373322,493.096985 47.062424,493.096985 
	C47.062424,489.574554 47.062424,486.337891 47.062424,482.789490 
	C40.197868,482.789490 34.260548,482.789490 27.999863,482.789490 
	C27.999863,478.183868 27.829035,473.876160 28.053774,469.589203 
	C28.234415,466.143433 27.065798,464.576141 23.506706,464.972778 
	C22.026024,465.137756 20.502394,465.107147 19.014521,464.978210 
	C15.954654,464.713043 14.852083,466.057312 14.958074,469.066132 
	C15.119664,473.653290 15.000411,478.250366 15.000411,483.000275 
	C11.852196,483.000275 9.349113,483.175293 6.879013,482.964264 
	C1.547518,482.508789 2.750088,486.911713 2.494428,489.477386 
	C2.393312,490.492096 5.253321,492.427307 7.026480,492.851990 
	C9.483785,493.440552 12.187639,492.999817 15.000024,492.999817 
	C15.000024,508.092041 14.828649,522.564819 15.077459,537.030396 
	C15.189885,543.566711 16.829132,550.150818 23.477428,552.960144 
	C31.163616,556.207947 39.251926,556.831360 47.000538,551.416443 
M1129.943970,644.582092 
	C1134.167725,639.113831 1140.175781,637.295288 1146.648560,636.738953 
	C1146.648560,632.011169 1146.648560,627.611694 1146.648560,623.237244 
	C1138.055908,622.170349 1130.982544,625.095398 1124.584473,630.398376 
	C1124.069092,628.464905 1123.751587,627.273499 1123.494995,626.311035 
	C1118.867310,626.311035 1114.606689,626.311035 1110.361084,626.311035 
	C1110.361084,650.331360 1110.361084,674.038818 1110.361084,697.750977 
	C1114.990845,697.750977 1119.256958,697.750977 1124.000000,697.750977 
	C1124.000000,686.894531 1123.758911,676.272644 1124.083862,665.668091 
	C1124.303589,658.500793 1125.132202,651.308350 1129.943970,644.582092 
M806.000000,469.501831 
	C806.000000,495.797363 806.178284,522.095093 805.856628,548.386658 
	C805.788574,553.955017 808.278748,554.138062 812.455383,554.090271 
	C816.496338,554.044006 819.206604,554.193481 819.145996,548.478210 
	C818.832031,518.857422 819.000000,489.231567 819.000000,459.607483 
	C819.000000,450.268768 818.987000,450.146118 809.565308,451.144592 
	C808.272644,451.281555 806.277527,453.268311 806.164429,454.537476 
	C805.752258,459.160767 806.000610,463.842896 806.000000,469.501831 
M1175.000000,546.370667 
	C1175.001343,554.081970 1175.006348,553.884766 1182.923584,554.083862 
	C1186.835083,554.182129 1188.123535,553.030945 1188.084717,549.008362 
	C1187.896729,529.546021 1188.000122,510.080963 1188.000000,490.616882 
	C1188.000000,482.916382 1187.994751,483.116058 1180.064087,482.915253 
	C1176.135498,482.815765 1174.876343,483.997192 1174.915771,488.003998 
	C1175.103760,507.133545 1175.000000,526.265930 1175.000000,546.370667 
M199.059906,684.926331 
	C199.000732,685.421082 199.047089,685.958740 198.866089,686.403992 
	C197.018616,690.946899 198.200592,694.786133 202.042557,697.503601 
	C205.906616,700.236694 210.299225,699.895325 214.000626,697.314453 
	C218.190765,694.392822 217.625916,689.566772 216.620590,685.483215 
	C215.535950,681.077576 211.673645,679.170410 207.355469,680.143738 
	C204.528839,680.780823 202.012436,682.794250 199.059906,684.926331 
M598.511597,699.000000 
	C605.622437,698.820801 608.087585,696.202209 608.000061,688.920349 
	C607.928650,682.973816 605.115173,680.074280 599.344421,679.999939 
	C593.206787,679.920898 589.130127,683.602295 589.005798,689.336060 
	C588.886963,694.819336 592.214966,698.535339 598.511597,699.000000 
M971.025085,696.451538 
	C974.043152,691.144531 973.771790,684.889404 970.394592,681.919983 
	C967.515625,679.388428 961.149902,679.230896 957.926880,681.611511 
	C953.625610,684.788513 952.781555,690.810852 955.950623,695.711792 
	C958.517822,699.682190 964.777222,700.250305 971.025085,696.451538 
M1272.899658,695.521057 
	C1275.512573,699.959351 1279.872192,699.329773 1283.828857,698.859619 
	C1288.239746,698.335388 1290.258423,694.376709 1289.999390,688.069092 
	C1289.811768,683.499268 1287.161499,680.649841 1282.979004,679.971069 
	C1275.919800,678.825378 1267.998291,684.337402 1272.899658,695.521057 
M1180.624268,455.000000 
	C1175.577393,453.945251 1173.347656,457.219666 1173.266357,461.156555 
	C1173.207397,464.016815 1174.715332,468.793854 1176.590210,469.395386 
	C1179.918457,470.463287 1185.218750,470.295380 1187.503906,468.225983 
	C1189.505981,466.412903 1189.196899,461.135132 1188.474487,457.688446 
	C1188.197021,456.364258 1183.951904,455.871552 1180.624268,455.000000 
z"/>
<path fill="#1D4760" opacity="1.000000" stroke="none" 
	d="
M799.532043,1.000003 
	C805.556763,4.390193 811.796387,7.028883 816.527588,11.327694 
	C826.242981,20.155121 825.703003,32.132458 822.583740,43.283367 
	C819.482666,54.369503 810.803284,60.697815 799.366760,63.037388 
	C792.005859,64.543190 784.729614,64.774979 777.690613,61.969082 
	C764.070007,56.539661 759.172729,48.634388 758.064880,36.111404 
	C757.270325,27.130056 758.157410,18.427683 764.894348,11.390358 
	C769.581238,6.494622 775.150635,3.240789 781.871216,1.357226 
	C787.688049,1.000000 793.376038,1.000000 799.532043,1.000003 
z"/>
<path fill="#1D4760" opacity="1.000000" stroke="none" 
	d="
M1474.000000,203.003296 
	C1474.000000,262.466370 1474.000000,321.430237 1474.000000,380.696838 
	C1455.016968,380.696838 1436.288574,380.696838 1417.000000,380.696838 
	C1417.000000,378.932526 1417.000000,377.161377 1417.000000,375.390228 
	C1417.000000,322.901764 1417.100708,270.413025 1416.950439,217.924973 
	C1416.890259,196.930542 1411.618530,177.337143 1398.703857,160.425201 
	C1390.310547,149.434052 1378.650513,143.401657 1365.172241,141.128159 
	C1350.183350,138.599838 1335.525879,139.987427 1321.731689,146.757050 
	C1306.454102,154.254562 1296.949341,167.218506 1290.120483,182.173462 
	C1283.431396,196.822266 1281.704712,212.402145 1281.845703,228.534775 
	C1282.272339,277.353638 1282.000000,326.178619 1282.000000,375.001221 
	C1282.000000,376.808136 1282.000000,378.615082 1282.000000,380.709717 
	C1264.657471,380.709717 1247.595459,380.709717 1230.000000,380.709717 
	C1230.000000,378.902191 1230.000000,377.127441 1230.000000,375.352722 
	C1230.000000,318.365234 1230.071655,261.377625 1229.950928,204.390411 
	C1229.919678,189.636093 1233.304932,175.605453 1238.565918,162.074158 
	C1244.639893,146.452332 1253.723511,132.447296 1265.827393,120.860687 
	C1281.985352,105.392982 1301.269409,95.596001 1323.294678,90.868362 
	C1337.675171,87.781662 1352.188965,87.081879 1366.589355,88.232880 
	C1386.253052,89.804565 1405.203735,94.817413 1422.155518,105.648727 
	C1436.370972,114.731766 1448.948242,125.626411 1458.809204,139.380234 
	C1466.417969,149.992828 1470.444702,162.110764 1471.929443,174.979523 
	C1472.983032,184.112457 1473.334961,193.326340 1474.000000,203.003296 
z"/>
<path fill="#1D4760" opacity="1.000000" stroke="none" 
	d="
M272.000000,236.000000 
	C272.000000,189.203400 272.000000,142.906799 272.000000,96.305328 
	C289.644073,96.305328 307.038391,96.305328 325.000000,96.305328 
	C325.000000,98.059319 325.000000,99.829369 325.000000,101.599426 
	C325.000000,160.248138 324.765991,218.898422 325.161743,277.544464 
	C325.262787,292.515930 330.860352,306.110321 340.982117,317.453094 
	C353.544830,331.531250 369.434235,338.113861 388.216003,339.138031 
	C402.608795,339.922852 415.971771,337.990326 427.643677,329.027679 
	C438.777588,320.478180 446.472961,309.247528 451.968292,296.484863 
	C457.550873,283.519531 459.079468,269.838013 459.047028,255.816238 
	C458.928223,204.498886 459.000000,153.181107 459.000000,101.863480 
	C459.000000,100.068954 459.000000,98.274437 459.000000,96.242615 
	C476.438721,96.242615 493.499146,96.242615 511.000000,96.242615 
	C511.000000,98.203354 511.000000,99.990234 511.000000,101.777115 
	C511.000000,134.100555 510.873749,166.424637 511.040802,198.747208 
	C511.169586,223.666870 512.136719,248.589523 511.877075,273.501953 
	C511.574799,302.507446 502.572784,328.869537 483.995117,351.315033 
	C466.568848,372.369385 444.444885,385.892181 416.813446,388.927673 
	C406.356689,390.076416 395.748230,391.356018 385.302551,390.804199 
	C356.637207,389.289886 330.140900,381.326202 307.692596,362.289703 
	C289.680908,347.015472 281.033386,326.813995 276.013733,304.545837 
	C270.952209,282.092102 272.056427,259.258026 272.000000,236.000000 
z"/>
<path fill="#1D4760" opacity="1.000000" stroke="none" 
	d="
M225.770493,109.272797 
	C232.979797,117.533897 237.510559,126.640488 236.921173,137.428284 
	C236.059280,153.203430 229.627670,166.814667 219.629669,178.898865 
	C209.317657,191.362549 199.160934,203.954575 188.875549,216.440430 
	C181.898682,224.909973 174.769699,233.254211 167.793396,241.724213 
	C157.403412,254.338821 147.129089,267.048767 136.726883,279.653229 
	C129.636673,288.244507 122.378365,296.696869 115.256676,305.262451 
	C107.545624,314.536926 99.905991,323.870728 91.658775,333.878113 
	C141.503311,333.878113 190.495651,333.878113 239.742874,333.878113 
	C239.742874,349.742706 239.742874,365.136932 239.742874,381.000000 
	C237.995361,381.000000 236.378845,381.000000 234.762344,381.000000 
	C176.946747,381.000000 119.130989,381.077759 61.315666,380.954224 
	C43.173573,380.915466 24.860710,365.461914 27.056690,344.482361 
	C28.178078,333.769043 32.520828,324.376068 39.418747,315.968842 
	C51.214516,301.592041 62.626396,286.900757 74.241814,272.375366 
	C83.931694,260.257874 93.736687,248.232162 103.390541,236.086197 
	C113.024826,223.964813 122.484520,211.704727 132.112946,199.578659 
	C141.761108,187.427734 151.533112,175.375229 161.230408,163.263214 
	C165.082535,158.451843 168.879730,153.596512 173.210388,148.117981 
	C127.827477,148.117981 83.167274,148.117981 38.254780,148.117981 
	C38.254780,130.586090 38.254780,113.525574 38.254780,96.000000 
	C39.842514,96.000000 41.292740,96.000000 42.742962,96.000000 
	C91.561310,96.000000 140.383575,95.661682 189.195419,96.224968 
	C202.287415,96.376045 215.556366,98.692497 225.770493,109.272797 
z"/>
<path fill="#1D4760" opacity="1.000000" stroke="none" 
	d="
M619.000000,281.000000 
	C619.000000,314.461395 619.000000,347.422791 619.000000,380.691803 
	C601.364502,380.691803 583.972656,380.691803 566.289490,380.691803 
	C566.289490,286.019012 566.289490,191.322403 566.289490,96.312759 
	C583.626221,96.312759 601.018127,96.312759 618.860046,96.312759 
	C618.860046,104.640152 618.860046,113.023300 618.860046,122.578018 
	C622.559692,118.515388 625.286560,115.106194 628.430237,112.138626 
	C644.524475,96.946083 663.105957,87.684883 685.813049,87.911926 
	C692.692505,87.980713 699.582397,87.000343 706.728149,86.481598 
	C706.728149,103.728416 706.728149,121.085884 706.728149,138.120377 
	C699.227051,139.085342 691.682190,139.469543 684.415222,141.095581 
	C657.585083,147.099030 639.204956,162.947495 628.594421,188.544434 
	C621.899109,204.696350 618.587097,221.129288 618.942200,238.523254 
	C619.227783,252.510071 619.000000,266.507355 619.000000,281.000000 
z"/>
<path fill="#1D4760" opacity="1.000000" stroke="none" 
	d="
M815.000000,223.000000 
	C815.000000,275.789032 815.000000,328.078064 815.000000,380.683380 
	C797.381165,380.683380 779.988708,380.683380 762.297241,380.683380 
	C762.297241,286.031982 762.297241,191.332840 762.297241,96.316711 
	C779.618652,96.316711 797.011108,96.316711 815.000000,96.316711 
	C815.000000,138.344452 815.000000,180.422226 815.000000,223.000000 
z"/>
<path fill="#86C441" opacity="1.000000" stroke="none" 
	d="
M438.000000,692.864807 
	C438.000000,679.051208 438.002625,665.723999 437.999023,652.396790 
	C437.996796,644.203735 432.314362,636.961670 425.559753,637.373291 
	C418.008240,637.833496 412.094330,644.669800 412.032501,652.387573 
	C411.919067,666.546814 412.000885,680.707642 411.991699,694.867798 
	C411.991180,695.682800 411.904724,696.497742 411.838928,697.652100 
	C407.335083,697.652100 402.952820,697.652100 398.000000,697.652100 
	C398.000000,687.653259 398.000031,677.712891 398.000000,667.772583 
	C398.000000,662.441711 398.325653,657.086609 397.932404,651.784912 
	C397.104919,640.628906 388.390930,633.869507 377.443054,639.847656 
	C371.901520,642.873596 371.190186,648.095093 371.094543,653.276123 
	C370.824280,667.921387 371.000031,682.574890 371.000031,697.612061 
	C366.418671,697.612061 362.037292,697.612061 357.000000,697.612061 
	C357.000000,693.414001 357.000000,689.145630 357.000000,684.877258 
	C357.000000,672.549622 357.438721,660.201721 356.872009,647.900208 
	C356.344879,636.457581 366.796478,625.903137 378.802826,625.075378 
	C383.755341,624.733948 388.812714,624.834106 393.726257,625.472839 
	C396.109375,625.782593 398.785126,627.331421 400.421783,629.139771 
	C403.492462,632.532715 405.870605,632.305603 409.118774,629.471008 
	C418.274078,621.481201 442.587585,623.196106 449.844635,636.425110 
	C450.906952,638.361694 451.886658,640.661621 451.905762,642.802368 
	C452.067963,660.947388 451.998444,679.094482 451.998444,697.619995 
	C447.402313,697.619995 443.021667,697.619995 438.274719,697.619995 
	C438.185455,696.232910 438.092743,694.792053 438.000000,692.864807 
z"/>
<path fill="#1D4760" opacity="1.000000" stroke="none" 
	d="
M1066.978760,581.000000 
	C1058.175293,580.955322 1050.232056,580.881470 1042.370972,576.382507 
	C1033.392578,571.244080 1033.775024,555.089783 1040.787109,549.483398 
	C1041.848267,548.634949 1042.640381,545.454590 1042.029053,544.816711 
	C1035.520630,538.023621 1037.593384,531.259399 1041.277832,524.147156 
	C1042.158569,522.447205 1042.580688,519.767395 1041.873779,518.109741 
	C1037.808228,508.576874 1038.239258,499.548370 1044.031006,490.919495 
	C1047.739624,485.394043 1053.432129,482.887177 1059.693726,482.116913 
	C1064.451660,481.531647 1069.343140,481.878754 1074.168457,482.029419 
	C1081.259888,482.250824 1088.345703,482.917450 1095.432983,482.903595 
	C1099.510742,482.895630 1100.047607,485.062378 1099.995728,488.160919 
	C1099.947510,491.038910 1099.425537,493.398041 1095.612061,493.039764 
	C1093.302612,492.822784 1090.956055,492.999786 1089.681885,492.999786 
	C1090.451782,498.135498 1092.266113,503.414703 1091.708374,508.430206 
	C1091.146973,513.478455 1089.222168,519.039490 1086.133789,523.004028 
	C1079.688721,531.277893 1062.253906,532.480591 1052.459473,527.227966 
	C1048.030273,533.195984 1049.485962,537.204224 1056.671265,537.934875 
	C1063.049072,538.583252 1069.498779,538.499023 1075.890259,539.046936 
	C1082.371094,539.602478 1088.585327,540.740051 1093.919556,545.270813 
	C1100.786987,551.103638 1100.510864,564.108948 1094.439087,571.080383 
	C1087.257568,579.325989 1077.930054,581.688110 1066.978760,581.000000 
M1050.344238,566.882507 
	C1058.573242,572.597534 1067.652100,571.885437 1076.664551,569.886780 
	C1081.841309,568.738892 1086.554443,562.316467 1085.889038,558.617126 
	C1085.011353,553.738464 1080.063965,550.154236 1073.826782,550.017334 
	C1069.682739,549.926331 1065.535156,549.999939 1061.389160,550.000061 
	C1051.609863,550.000244 1047.000244,556.472473 1050.344238,566.882507 
M1069.860229,519.976746 
	C1071.165039,519.333069 1072.503540,518.749084 1073.769165,518.035828 
	C1081.369507,513.752197 1080.562744,497.544128 1074.200439,494.024750 
	C1069.312378,491.320862 1064.029175,490.814087 1059.145386,493.102661 
	C1053.985596,495.520599 1052.277832,500.708282 1052.047241,506.107147 
	C1051.649414,515.419800 1057.376221,520.005981 1069.860229,519.976746 
z"/>
<path fill="#86C441" opacity="1.000000" stroke="none" 
	d="
M1028.978638,150.000000 
	C1024.988647,150.000000 1021.493713,150.000137 1017.998718,149.999985 
	C1010.003540,149.999634 1010.001343,149.999573 1010.000427,142.179062 
	C1009.998779,127.699913 1010.000000,113.220757 1010.000000,98.741608 
	C1010.000000,85.261017 1010.132629,71.778412 1009.928833,58.300903 
	C1009.856506,53.516567 1011.671997,51.763630 1016.382751,51.936207 
	C1023.197144,52.185844 1030.028076,52.052448 1036.850708,51.979347 
	C1040.365234,51.941696 1042.019409,53.471420 1042.015747,57.034912 
	C1041.985962,86.658897 1041.973755,116.282990 1042.037354,145.906876 
	C1042.043823,148.890213 1041.007202,150.195206 1037.959717,150.031052 
	C1035.138672,149.879089 1032.302856,149.999527 1028.978638,150.000000 
z"/>
<path fill="#86C441" opacity="1.000000" stroke="none" 
	d="
M1115.021606,167.998383 
	C1134.582642,156.432037 1153.826660,145.021072 1172.940552,133.395844 
	C1176.599731,131.170227 1178.693359,131.480255 1180.802979,135.296173 
	C1184.116455,141.290222 1187.770996,147.101288 1191.422607,152.900711 
	C1193.324829,155.921829 1193.483765,157.981659 1189.918945,160.091354 
	C1171.934326,170.735138 1154.087769,181.611877 1136.171875,192.372192 
	C1128.893066,196.743896 1121.327271,200.688416 1114.356201,205.499924 
	C1111.057007,207.777176 1109.384399,206.603882 1107.892578,204.279205 
	C1103.573364,197.548721 1099.386963,190.720428 1095.529663,183.720428 
	C1094.986328,182.734573 1096.092285,179.877380 1097.254517,179.077240 
	C1102.902954,175.188782 1108.830688,171.705841 1115.021606,167.998383 
z"/>
<path fill="#86C441" opacity="1.000000" stroke="none" 
	d="
M945.286377,131.650238 
	C937.131287,117.809868 929.209778,104.264565 921.213196,90.763649 
	C919.435486,87.762352 919.088501,85.577271 922.769165,83.548096 
	C929.349792,79.920235 935.734192,75.927063 942.112061,71.944832 
	C945.141541,70.053276 946.592529,71.610138 948.016968,74.016663 
	C954.010559,84.143150 960.050598,94.242142 966.075439,104.350105 
	C974.616150,118.678963 983.134338,133.021301 991.711304,147.328415 
	C995.364563,153.422394 994.903931,154.717697 988.461792,158.257339 
	C983.162842,161.168884 978.004333,164.354492 972.914612,167.622635 
	C968.926880,170.183151 966.981445,168.590073 964.906494,164.931763 
	C958.614929,153.839676 951.988647,142.937485 945.286377,131.650238 
z"/>
<path fill="#86C441" opacity="1.000000" stroke="none" 
	d="
M1096.263672,147.219116 
	C1092.649048,153.090561 1089.282593,158.689621 1085.931763,164.297974 
	C1083.065796,169.094864 1080.840576,169.603195 1076.290649,166.698013 
	C1070.918457,163.267822 1065.613525,159.690781 1060.010254,156.678131 
	C1056.114136,154.583344 1056.297119,151.925735 1058.056274,148.955093 
	C1066.217773,135.173401 1074.491577,121.457901 1082.777832,107.750473 
	C1089.119751,97.259598 1095.606812,86.856071 1101.899780,76.336174 
	C1105.461426,70.382034 1106.481323,70.099632 1112.416504,73.892662 
	C1117.508301,77.146698 1122.563477,80.505806 1127.902344,83.309036 
	C1131.773193,85.341431 1131.769409,87.936485 1129.967407,90.973015 
	C1122.710693,103.200310 1115.298584,115.335136 1107.985596,127.529160 
	C1104.119019,133.976517 1100.338257,140.475235 1096.263672,147.219116 
z"/>
<path fill="#86C441" opacity="1.000000" stroke="none" 
	d="
M800.000000,681.362000 
	C800.000000,683.476868 800.000061,685.142090 800.000000,686.807251 
	C799.999878,695.207153 799.825562,695.663513 791.581482,698.093079 
	C771.555603,703.994446 750.225769,696.313782 744.627686,674.151428 
	C740.580994,658.130859 743.510498,642.218811 757.670837,631.154602 
	C761.605042,628.080688 767.038696,625.735229 771.962830,625.352539 
	C784.390564,624.386719 797.117859,623.507874 807.620483,632.843201 
	C814.285645,638.767578 818.563049,646.021301 818.867188,654.806946 
	C819.356140,668.933533 818.998352,683.089478 818.998352,697.615967 
	C813.750793,697.615967 808.699341,697.615967 803.000000,697.615967 
	C803.000000,691.247192 803.000000,684.816284 803.000000,678.385315 
	C803.000000,671.558105 803.000122,664.730835 803.000000,657.903625 
	C802.999878,647.792664 798.506042,641.904480 788.889038,639.413879 
	C778.139404,636.629944 766.799988,640.589966 761.102112,649.462646 
	C755.410828,658.325134 755.384766,667.846008 761.298767,676.176453 
	C766.602478,683.647461 775.138306,687.061951 784.292725,685.708130 
	C788.465637,685.091003 792.231506,681.601135 796.129700,679.324768 
	C797.196167,678.702026 798.073364,677.755432 799.666687,676.436401 
	C799.816406,678.447327 799.908203,679.679810 800.000000,681.362000 
z"/>
<path fill="#86C441" opacity="1.000000" stroke="none" 
	d="
M921.996033,222.000000 
	C926.658752,222.000488 930.826904,222.117737 934.984863,221.962860 
	C938.060425,221.848312 939.090454,223.162292 939.038330,226.123840 
	C938.915161,233.116806 938.976013,240.113510 939.008728,247.108490 
	C939.024048,250.380402 937.510315,252.005676 934.200928,252.004440 
	C904.721436,251.993408 875.241394,252.066895 845.764160,251.809082 
	C844.165527,251.795105 841.326599,249.131760 841.221008,247.557098 
	C840.731873,240.261658 841.084595,232.913910 840.972168,225.587402 
	C840.912354,221.682922 843.483398,221.992294 846.049622,221.993683 
	C867.035034,222.005051 888.020386,222.000031 909.005798,222.000000 
	C913.169556,221.999985 917.333313,222.000000 921.996033,222.000000 
z"/>
<path fill="#86C441" opacity="1.000000" stroke="none" 
	d="
M911.975220,153.998077 
	C925.198547,161.868179 937.986145,169.782837 950.946594,177.403549 
	C959.823059,182.622879 959.955688,182.454254 954.952026,191.179138 
	C952.430542,195.575790 949.725464,199.868027 947.244019,204.286469 
	C945.632629,207.155579 943.688049,207.688843 940.877686,205.985107 
	C926.344543,197.174484 911.763916,188.442184 897.234619,179.625244 
	C886.614929,173.180862 876.145569,166.481644 865.406677,160.244766 
	C861.659912,158.068787 861.473328,156.104080 863.660217,152.791351 
	C867.170654,147.473541 870.573303,142.068909 873.702759,136.521149 
	C875.636047,133.093918 877.806946,133.387955 880.595154,135.087265 
	C890.923462,141.382095 901.272217,147.643402 911.975220,153.998077 
z"/>
<path fill="#86C441" opacity="1.000000" stroke="none" 
	d="
M969.285828,362.350800 
	C962.041504,374.819946 954.989624,386.969818 947.974854,399.141052 
	C946.231262,402.166168 943.982422,402.794830 940.975403,401.000427 
	C935.359924,397.649384 929.752686,394.281891 924.071899,391.044250 
	C921.119019,389.361328 921.488464,387.081116 922.802490,384.782837 
	C929.532776,373.010864 936.310852,361.265564 943.160461,349.562622 
	C950.919861,336.305267 958.917053,323.184448 966.496826,309.826111 
	C968.754333,305.847565 971.086731,305.085846 974.816162,307.360565 
	C979.977783,310.508789 985.070068,313.794739 990.394287,316.643768 
	C993.893799,318.516388 993.630249,320.910400 992.076538,323.582001 
	C984.602966,336.432861 977.029846,349.225891 969.285828,362.350800 
z"/>
<path fill="#86C441" opacity="1.000000" stroke="none" 
	d="
M1133.227905,282.743835 
	C1151.736816,293.546967 1169.912109,304.203217 1188.258423,314.556213 
	C1192.324707,316.850891 1192.810669,319.241089 1190.581665,322.894409 
	C1187.434937,328.052124 1184.142944,333.137238 1181.311279,338.465057 
	C1179.573853,341.733948 1177.306152,341.656311 1174.820679,340.217682 
	C1153.054932,327.619873 1131.351929,314.913818 1109.607300,302.279572 
	C1106.219727,300.311432 1102.795166,298.371674 1099.242798,296.733032 
	C1095.749878,295.121796 1095.057007,292.851929 1096.811523,289.625610 
	C1099.932007,283.887726 1103.005737,278.122406 1106.247070,272.453125 
	C1108.246460,268.955994 1111.042603,269.751343 1113.891846,271.417450 
	C1120.235352,275.126740 1126.599854,278.799866 1133.227905,282.743835 
z"/>
<path fill="#86C441" opacity="1.000000" stroke="none" 
	d="
M1037.561768,325.046570 
	C1038.683594,326.609680 1039.910034,328.136353 1039.915894,329.667725 
	C1040.029541,359.161896 1039.949097,388.656891 1040.064453,418.151062 
	C1040.078857,421.828156 1038.960327,423.208313 1035.206055,423.065521 
	C1028.882935,422.825073 1022.543701,422.957886 1016.212158,423.019592 
	C1013.754883,423.043549 1011.979065,422.653809 1011.982849,419.571350 
	C1012.021240,388.268524 1012.006348,356.965607 1012.006348,325.012329 
	C1020.569092,325.012329 1028.833496,325.012329 1037.561768,325.046570 
z"/>
<path fill="#86C441" opacity="1.000000" stroke="none" 
	d="
M1167.000000,223.000000 
	C1179.665527,223.000000 1191.831177,222.994904 1203.996704,223.002075 
	C1210.368652,223.005844 1211.379150,224.003708 1210.983765,230.189865 
	C1210.552979,236.925293 1210.013306,243.653763 1209.495117,250.741089 
	C1208.204224,250.821075 1206.760620,250.987793 1205.316895,250.988556 
	C1176.486206,251.003845 1147.654785,250.900558 1118.825562,251.100983 
	C1114.192627,251.133194 1112.660156,249.847595 1112.902710,245.179077 
	C1113.273193,238.047119 1113.000000,230.881729 1113.000000,223.000000 
	C1130.994141,223.000000 1148.747070,223.000000 1167.000000,223.000000 
z"/>
<path fill="#86C441" opacity="1.000000" stroke="none" 
	d="
M1089.003418,319.031769 
	C1101.993042,341.762848 1114.884277,364.140289 1127.822266,386.490570 
	C1130.740356,391.531372 1130.227295,393.232941 1125.059448,396.019318 
	C1120.456299,398.501129 1115.958740,401.183380 1111.465332,403.862244 
	C1108.626953,405.554413 1106.664673,405.021820 1105.000977,402.108307 
	C1093.576050,382.101562 1082.079468,362.135773 1070.605957,342.156860 
	C1067.431396,336.628815 1064.425293,330.994080 1061.017090,325.614044 
	C1059.010742,322.446991 1059.813477,320.473358 1062.699341,318.821350 
	C1067.945312,315.818146 1073.273926,312.955322 1078.464233,309.860016 
	C1081.560059,308.013702 1083.413086,309.272827 1084.963013,311.885559 
	C1086.298584,314.137024 1087.603638,316.406708 1089.003418,319.031769 
z"/>
<path fill="#1D4760" opacity="1.000000" stroke="none" 
	d="
M442.000000,528.000000 
	C442.000000,536.806152 442.000000,545.112305 442.000000,553.451172 
	C441.314392,553.680298 440.870575,553.960144 440.428772,553.957031 
	C426.551239,553.858826 429.208038,555.768127 429.031128,542.850891 
	C428.880554,531.855469 429.040649,520.856201 428.986450,509.858948 
	C428.946747,501.800537 425.083557,495.425629 419.184052,494.149719 
	C412.879730,492.786224 407.743835,495.496887 403.014496,499.426025 
	C398.673981,503.032104 396.601166,507.174255 396.852905,513.140625 
	C397.351166,524.950195 396.853333,536.798401 397.080780,548.624695 
	C397.158691,552.675232 396.133789,554.260498 391.790497,554.099670 
	C384.009552,553.811584 384.000061,554.065491 384.000031,546.215759 
	C384.000000,516.389282 384.172272,486.560974 383.853882,456.737885 
	C383.790619,450.810394 386.627106,451.037994 390.838104,450.878296 
	C395.491455,450.701782 397.315765,451.876068 397.118774,456.926514 
	C396.720520,467.136841 397.000000,477.373627 397.000000,489.107208 
	C400.128967,487.731720 401.763733,487.304352 403.061218,486.395508 
	C411.649689,480.379883 420.980957,480.223663 430.055054,484.167480 
	C438.749115,487.946167 441.771149,495.955017 441.966858,505.005768 
	C442.128906,512.500549 442.000000,520.001709 442.000000,528.000000 
z"/>
<path fill="#86C441" opacity="1.000000" stroke="none" 
	d="
M949.714539,277.351685 
	C951.631165,280.636780 953.267151,283.655945 955.073608,286.569427 
	C956.786011,289.331146 956.455872,291.177979 953.477600,292.942139 
	C928.027588,308.017670 902.590820,323.117706 877.303894,338.463898 
	C874.051636,340.437653 872.560852,339.436310 871.023132,336.980347 
	C867.985596,332.129120 865.006531,327.238525 862.128296,322.291504 
	C860.564270,319.603333 860.277588,317.535217 863.810669,315.479584 
	C880.620361,305.699402 897.220093,295.558716 913.908325,285.569275 
	C921.264709,281.165833 928.680359,276.861084 936.020264,272.430695 
	C943.256042,268.063232 943.667236,266.400604 948.226196,275.519226 
	C948.514343,276.095612 949.074707,276.535919 949.714539,277.351685 
z"/>
<path fill="#86C441" opacity="1.000000" stroke="none" 
	d="
M58.639061,693.718872 
	C53.028610,697.612061 47.040401,698.959229 40.713791,698.985535 
	C28.730928,699.035461 16.747711,699.000000 4.382960,699.000000 
	C4.382960,694.078308 4.382960,689.359924 4.382960,684.743164 
	C15.056037,684.743164 25.764677,684.837830 36.469795,684.685242 
	C39.666698,684.639709 43.052574,684.439270 45.996449,683.349609 
	C49.943508,681.888611 50.684433,678.031433 47.051739,675.884705 
	C41.420773,672.557312 35.011482,670.541809 28.918451,668.003052 
	C23.230194,665.632996 17.109539,663.985229 11.913962,660.815308 
	C1.834150,654.665222 0.791583,637.589172 10.249618,630.612427 
	C14.044105,627.813354 19.596319,626.453796 24.439009,626.205688 
	C36.377472,625.594055 48.368328,626.005310 60.667664,626.005310 
	C60.667664,630.028320 60.667664,633.743713 60.667664,638.000000 
	C52.119003,638.000000 43.668484,637.820007 35.231548,638.080322 
	C31.351833,638.200134 27.387951,638.815308 23.681217,639.932434 
	C21.880453,640.475159 19.653492,642.518677 19.345350,644.199219 
	C19.087448,645.605713 20.984083,648.063232 22.556026,649.006836 
	C25.450678,650.744385 28.720066,652.024109 31.988632,652.940430 
	C41.118874,655.500000 50.052437,658.097046 57.816280,664.125671 
	C66.172798,670.614502 65.646507,687.334229 58.639061,693.718872 
z"/>
<path fill="#1D4760" opacity="1.000000" stroke="none" 
	d="
M899.209900,503.496216 
	C903.276794,489.933777 916.430725,481.091095 928.789307,482.026276 
	C934.300049,482.443298 940.019531,482.355499 945.241089,483.878845 
	C956.785950,487.246918 962.065063,496.065826 964.075806,507.518433 
	C965.755066,517.083313 965.206909,526.297424 962.027649,535.461182 
	C958.119812,546.724670 946.808533,555.101990 934.933167,554.949890 
	C929.203003,554.876465 923.214172,555.223633 917.806824,553.715393 
	C905.441772,550.266541 900.165955,540.723938 897.859802,528.624695 
	C896.241272,520.133179 897.618591,512.071472 899.209900,503.496216 
M914.024780,502.828217 
	C910.385254,511.391083 910.071899,520.279663 912.164978,529.159058 
	C913.814758,536.157654 917.815125,542.337158 925.081665,543.699280 
	C932.644409,545.117004 940.839844,544.979370 946.018677,537.383057 
	C951.488953,529.359131 951.954834,520.242676 950.475037,511.050964 
	C949.425781,504.534058 947.010559,498.496002 940.781433,494.948792 
	C931.776855,489.821198 921.578003,492.604004 914.024780,502.828217 
z"/>
<path fill="#1D4760" opacity="1.000000" stroke="none" 
	d="
M728.000000,521.781860 
	C726.604065,535.579773 721.978516,546.945251 708.715576,552.655884 
	C699.226440,556.741699 676.397461,557.369263 667.728516,545.359863 
	C663.387756,539.346313 661.010010,532.730042 660.388245,525.617798 
	C659.268433,512.809204 660.414368,500.282349 670.115173,490.513794 
	C675.661926,484.928314 682.596619,481.615143 690.727539,482.049255 
	C696.585327,482.362000 702.661499,482.283417 708.212463,483.873169 
	C719.787781,487.188171 725.408508,496.006226 726.955872,507.560486 
	C727.565063,512.109741 727.667053,516.726929 728.000000,521.781860 
M679.970825,538.456726 
	C690.071533,548.600342 707.141052,545.469238 711.771118,532.369446 
	C714.756775,523.922119 715.031677,515.302246 712.229187,506.514557 
	C710.008057,499.549713 706.137573,494.310669 698.916992,493.148285 
	C690.231018,491.750061 681.635681,493.250031 677.558411,502.159790 
	C672.073730,514.145020 672.109070,526.367737 679.970825,538.456726 
z"/>
<path fill="#1D4760" opacity="1.000000" stroke="none" 
	d="
M145.705688,543.868530 
	C151.423965,543.819458 156.791519,544.157043 161.986343,543.363586 
	C166.818954,542.625488 171.467484,540.682190 176.316406,539.233826 
	C177.989624,549.494934 177.167725,550.805725 167.883331,553.037415 
	C156.766174,555.709717 145.709488,556.663086 134.678452,552.287964 
	C124.183624,548.125488 119.847473,539.458374 118.138344,529.343628 
	C116.446465,519.330872 116.957870,509.363037 120.896637,499.630096 
	C124.800575,489.983154 135.404526,481.831116 145.695892,482.076965 
	C151.543777,482.216675 157.650360,482.221802 163.149139,483.898712 
	C172.590179,486.777771 177.046600,494.585541 178.940140,503.844299 
	C179.624039,507.188354 179.877853,510.659088 179.954376,514.080383 
	C180.099686,520.575928 179.597046,520.993103 173.288666,520.997437 
	C160.961472,521.005981 148.634262,521.000000 136.307068,521.000000 
	C134.666946,521.000000 133.026825,521.000000 131.377197,521.000000 
	C131.756516,531.777832 133.265518,539.225952 145.705688,543.868530 
M152.493515,512.000000 
	C157.266312,512.000000 162.039108,512.000000 168.087082,512.000000 
	C165.692429,506.461060 164.295731,501.419739 161.531494,497.294830 
	C158.075256,492.137360 152.058273,492.642944 146.622147,493.050049 
	C139.361786,493.593811 132.565186,499.250000 131.516006,512.000000 
	C138.186752,512.000000 144.841064,512.000000 152.493515,512.000000 
z"/>
<path fill="#1D4760" opacity="1.000000" stroke="none" 
	d="
M1289.156494,482.931732 
	C1304.499512,480.483490 1316.507690,481.535980 1324.026123,493.643372 
	C1328.566650,500.955231 1329.612793,509.279236 1328.722046,517.668823 
	C1328.584839,518.961121 1325.124756,520.807678 1323.166138,520.852417 
	C1310.511719,521.140747 1297.847534,521.000000 1285.186523,521.000000 
	C1283.551514,521.000000 1281.916382,521.000000 1280.278198,521.000000 
	C1280.485718,534.645142 1285.501343,542.254333 1295.903931,543.794800 
	C1302.788086,544.814148 1309.990967,544.615662 1316.773682,541.723572 
	C1319.400635,540.603516 1322.346802,540.232117 1325.157471,539.517090 
	C1327.384399,548.770813 1325.984497,550.732910 1317.153442,553.082031 
	C1307.776123,555.576599 1298.339233,556.054626 1288.944580,553.967651 
	C1275.369019,550.952087 1269.676514,542.839722 1267.167114,529.588074 
	C1265.342285,519.951538 1265.812134,510.233307 1269.542969,500.782776 
	C1273.153442,491.636810 1279.298950,485.649719 1289.156494,482.931732 
M1304.472656,512.000000 
	C1308.251831,512.000000 1312.031006,512.000000 1317.078125,512.000000 
	C1314.696899,506.478394 1313.304443,501.435242 1310.543701,497.307373 
	C1307.092163,492.146759 1301.078857,492.643921 1295.638306,493.048035 
	C1288.440552,493.582581 1281.605957,499.132812 1280.501709,512.000000 
	C1288.174072,512.000000 1295.828247,512.000000 1304.472656,512.000000 
z"/>
<path fill="#1D4760" opacity="1.000000" stroke="none" 
	d="
M542.265198,500.238434 
	C537.973816,503.550934 536.748169,507.527130 536.891296,512.596741 
	C537.229614,524.576599 536.797302,536.577576 537.103577,548.559143 
	C537.220032,553.114563 535.617188,554.632080 531.363464,554.013245 
	C530.711243,553.918335 530.022461,553.921997 529.368958,554.012695 
	C525.324158,554.573975 523.829956,553.121216 523.901428,548.792297 
	C524.154419,533.476746 524.000000,518.154480 524.000000,502.834717 
	C524.000000,496.377869 524.000000,489.921021 524.000000,483.524994 
	C535.645508,481.922638 535.873108,482.054810 536.112915,491.066010 
	C538.872131,489.155884 541.332153,487.546173 543.692627,485.801880 
	C551.797058,479.812988 570.549622,480.079834 576.065552,488.780212 
	C578.751648,493.017090 581.538025,498.064117 581.733582,502.848480 
	C582.419678,519.631348 581.999756,536.459351 581.999756,553.983398 
	C578.464539,553.983398 574.991394,554.342468 571.674438,553.780334 
	C570.576294,553.594238 569.138855,551.047180 569.116211,549.560364 
	C568.916321,536.408447 569.025269,523.252075 568.990723,510.097198 
	C568.969360,501.978210 565.350281,495.610321 559.421082,494.238525 
	C552.781555,492.702393 547.274231,495.455444 542.265198,500.238434 
z"/>
<path fill="#86C441" opacity="1.000000" stroke="none" 
	d="
M1465.894775,699.000000 
	C1458.981201,698.671570 1452.553223,698.338074 1446.124512,698.015930 
	C1439.160034,697.666931 1435.541870,692.893921 1433.316528,687.285522 
	C1431.787598,683.432251 1431.142578,679.005188 1431.098022,674.823975 
	C1430.881226,654.495728 1431.000000,634.163940 1431.000000,613.833374 
	C1431.000000,612.041504 1431.000000,610.249634 1431.000000,608.241760 
	C1436.094238,608.241760 1440.694336,608.241760 1445.854614,608.241760 
	C1445.854614,613.986023 1445.854614,619.713074 1445.854614,625.811279 
	C1455.003784,625.811279 1463.606079,625.811279 1472.603027,625.811279 
	C1472.603027,630.232605 1472.603027,634.283569 1472.603027,638.899048 
	C1463.971924,638.899048 1455.242310,638.899048 1446.021362,638.899048 
	C1446.021362,652.062378 1445.817627,664.680603 1446.118896,677.286743 
	C1446.244019,682.521851 1449.015747,684.750854 1454.501587,684.951233 
	C1460.085205,685.155273 1465.682129,684.996399 1471.642212,684.996399 
	C1471.642212,688.902039 1471.642212,693.623535 1471.642212,699.000000 
	C1469.911743,699.000000 1468.145874,699.000000 1465.894775,699.000000 
z"/>
<path fill="#1D4760" opacity="1.000000" stroke="none" 
	d="
M1407.647461,513.151062 
	C1399.557373,500.480774 1405.105713,484.739349 1422.264282,482.112976 
	C1426.982422,481.390778 1431.974854,481.503235 1436.721680,482.134094 
	C1445.572632,483.310394 1447.455688,486.342072 1446.702515,497.216797 
	C1444.687378,496.790680 1442.457275,496.858215 1440.867188,495.882599 
	C1435.932373,492.854797 1430.586548,492.707794 1425.159668,493.045715 
	C1421.293335,493.286469 1418.173096,495.528290 1417.193359,499.071930 
	C1416.194458,502.683929 1417.284790,506.257050 1421.318726,508.055237 
	C1426.457397,510.345764 1431.506226,512.850525 1436.709351,514.980652 
	C1447.987305,519.597717 1452.026855,526.861694 1450.844238,536.695129 
	C1449.338135,549.218689 1438.624023,554.784058 1429.483887,554.923828 
	C1423.919556,555.008850 1418.127686,555.191589 1412.818726,553.837891 
	C1402.339722,551.165955 1402.390625,550.647705 1403.343628,538.740051 
	C1405.369995,539.192261 1407.581787,539.174011 1409.205078,540.142334 
	C1414.478271,543.287659 1420.040649,544.360840 1426.119507,544.063477 
	C1432.216919,543.765015 1436.573853,540.863831 1437.751343,535.629883 
	C1438.414062,532.684753 1433.778198,526.840454 1429.406372,525.148926 
	C1424.899658,523.405273 1420.194702,522.051331 1415.933472,519.838989 
	C1412.954590,518.292480 1410.576294,515.589050 1407.647461,513.151062 
z"/>
<path fill="#1D4760" opacity="1.000000" stroke="none" 
	d="
M281.605225,493.010925 
	C271.657532,495.981140 268.926086,504.047424 268.283051,512.390869 
	C267.766907,519.087952 268.505951,526.292786 270.532959,532.687378 
	C274.468292,545.102356 288.260864,545.113647 297.118805,540.355469 
	C297.827545,539.974731 298.429443,539.399292 299.125488,538.990051 
	C301.656158,537.501953 303.924774,534.276306 307.287964,536.935852 
	C309.293762,538.521973 308.094666,546.834412 305.602783,548.850342 
	C295.423370,557.085754 271.316254,558.556519 261.952606,546.492615 
	C257.092865,540.231384 254.761581,532.958984 254.169586,525.402466 
	C253.282410,514.078064 254.292770,502.808655 261.036438,493.024811 
	C265.866943,486.016571 272.818665,482.263641 281.287842,482.087036 
	C287.760559,481.952087 294.284088,481.130188 300.503937,484.753326 
	C307.918701,489.072479 309.186859,491.237488 306.369598,500.440735 
	C304.498840,499.744690 302.431549,499.395508 300.865723,498.317719 
	C295.153809,494.386108 289.098022,491.998383 281.605225,493.010925 
z"/>
<path fill="#1D4760" opacity="1.000000" stroke="none" 
	d="
M46.967010,551.829834 
	C39.251926,556.831360 31.163616,556.207947 23.477428,552.960144 
	C16.829132,550.150818 15.189885,543.566711 15.077459,537.030396 
	C14.828649,522.564819 15.000024,508.092041 15.000024,492.999817 
	C12.187639,492.999817 9.483785,493.440552 7.026480,492.851990 
	C5.253321,492.427307 2.393312,490.492096 2.494428,489.477386 
	C2.750088,486.911713 1.547518,482.508789 6.879013,482.964264 
	C9.349113,483.175293 11.852196,483.000275 15.000411,483.000275 
	C15.000411,478.250366 15.119664,473.653290 14.958074,469.066132 
	C14.852083,466.057312 15.954654,464.713043 19.014521,464.978210 
	C20.502394,465.107147 22.026024,465.137756 23.506706,464.972778 
	C27.065798,464.576141 28.234415,466.143433 28.053774,469.589203 
	C27.829035,473.876160 27.999863,478.183868 27.999863,482.789490 
	C34.260548,482.789490 40.197868,482.789490 47.062424,482.789490 
	C47.062424,486.337891 47.062424,489.574554 47.062424,493.096985 
	C40.373322,493.096985 34.422714,493.096985 28.007658,493.096985 
	C28.007658,507.314453 27.706425,521.262207 28.130140,535.187988 
	C28.354160,542.550598 33.778381,545.711487 41.335514,543.834900 
	C42.724468,543.490051 44.034515,542.827454 45.538570,542.251099 
	C48.538830,544.824829 48.560135,547.978760 46.967010,551.829834 
z"/>
<path fill="#86C441" opacity="1.000000" stroke="none" 
	d="
M1129.681641,644.846436 
	C1125.132202,651.308350 1124.303589,658.500793 1124.083862,665.668091 
	C1123.758911,676.272644 1124.000000,686.894531 1124.000000,697.750977 
	C1119.256958,697.750977 1114.990845,697.750977 1110.361084,697.750977 
	C1110.361084,674.038818 1110.361084,650.331360 1110.361084,626.311035 
	C1114.606689,626.311035 1118.867310,626.311035 1123.494995,626.311035 
	C1123.751587,627.273499 1124.069092,628.464905 1124.584473,630.398376 
	C1130.982544,625.095398 1138.055908,622.170349 1146.648560,623.237244 
	C1146.648560,627.611694 1146.648560,632.011169 1146.648560,636.738953 
	C1140.175781,637.295288 1134.167725,639.113831 1129.681641,644.846436 
z"/>
<path fill="#1D4760" opacity="1.000000" stroke="none" 
	d="
M806.000000,469.002350 
	C806.000610,463.842896 805.752258,459.160767 806.164429,454.537476 
	C806.277527,453.268311 808.272644,451.281555 809.565308,451.144592 
	C818.987000,450.146118 819.000000,450.268768 819.000000,459.607483 
	C819.000000,489.231567 818.832031,518.857422 819.145996,548.478210 
	C819.206604,554.193481 816.496338,554.044006 812.455383,554.090271 
	C808.278748,554.138062 805.788574,553.955017 805.856628,548.386658 
	C806.178284,522.095093 806.000000,495.797363 806.000000,469.002350 
z"/>
<path fill="#1D4760" opacity="1.000000" stroke="none" 
	d="
M1175.000000,545.883972 
	C1175.000000,526.265930 1175.103760,507.133545 1174.915771,488.003998 
	C1174.876343,483.997192 1176.135498,482.815765 1180.064087,482.915253 
	C1187.994751,483.116058 1188.000000,482.916382 1188.000000,490.616882 
	C1188.000122,510.080963 1187.896729,529.546021 1188.084717,549.008362 
	C1188.123535,553.030945 1186.835083,554.182129 1182.923584,554.083862 
	C1175.006348,553.884766 1175.001343,554.081970 1175.000000,545.883972 
z"/>
<path fill="#86C441" opacity="1.000000" stroke="none" 
	d="
M199.208496,684.558777 
	C202.012436,682.794250 204.528839,680.780823 207.355469,680.143738 
	C211.673645,679.170410 215.535950,681.077576 216.620590,685.483215 
	C217.625916,689.566772 218.190765,694.392822 214.000626,697.314453 
	C210.299225,699.895325 205.906616,700.236694 202.042557,697.503601 
	C198.200592,694.786133 197.018616,690.946899 198.866089,686.403992 
	C199.047089,685.958740 199.000732,685.421082 199.208496,684.558777 
z"/>
<path fill="#86C441" opacity="1.000000" stroke="none" 
	d="
M598.086243,699.000000 
	C592.214966,698.535339 588.886963,694.819336 589.005798,689.336060 
	C589.130127,683.602295 593.206787,679.920898 599.344421,679.999939 
	C605.115173,680.074280 607.928650,682.973816 608.000061,688.920349 
	C608.087585,696.202209 605.622437,698.820801 598.086243,699.000000 
z"/>
<path fill="#86C441" opacity="1.000000" stroke="none" 
	d="
M970.736572,696.739624 
	C964.777222,700.250305 958.517822,699.682190 955.950623,695.711792 
	C952.781555,690.810852 953.625610,684.788513 957.926880,681.611511 
	C961.149902,679.230896 967.515625,679.388428 970.394592,681.919983 
	C973.771790,684.889404 974.043152,691.144531 970.736572,696.739624 
z"/>
<path fill="#86C441" opacity="1.000000" stroke="none" 
	d="
M1272.653076,695.203979 
	C1267.998291,684.337402 1275.919800,678.825378 1282.979004,679.971069 
	C1287.161499,680.649841 1289.811768,683.499268 1289.999390,688.069092 
	C1290.258423,694.376709 1288.239746,698.335388 1283.828857,698.859619 
	C1279.872192,699.329773 1275.512573,699.959351 1272.653076,695.203979 
z"/>
<path fill="#1D4760" opacity="1.000000" stroke="none" 
	d="
M1181.069458,455.000000 
	C1183.951904,455.871552 1188.197021,456.364258 1188.474487,457.688446 
	C1189.196899,461.135132 1189.505981,466.412903 1187.503906,468.225983 
	C1185.218750,470.295380 1179.918457,470.463287 1176.590210,469.395386 
	C1174.715332,468.793854 1173.207397,464.016815 1173.266357,461.156555 
	C1173.347656,457.219666 1175.577393,453.945251 1181.069458,455.000000 
z"/>
<path fill="#FFFFFF" opacity="1.000000" stroke="none" 
	d="
M1050.079224,566.567139 
	C1047.000244,556.472473 1051.609863,550.000244 1061.389160,550.000061 
	C1065.535156,549.999939 1069.682739,549.926331 1073.826782,550.017334 
	C1080.063965,550.154236 1085.011353,553.738464 1085.889038,558.617126 
	C1086.554443,562.316467 1081.841309,568.738892 1076.664551,569.886780 
	C1067.652100,571.885437 1058.573242,572.597534 1050.079224,566.567139 
z"/>
<path fill="#FFFFFF" opacity="1.000000" stroke="none" 
	d="
M1069.427490,519.987183 
	C1057.376221,520.005981 1051.649414,515.419800 1052.047241,506.107147 
	C1052.277832,500.708282 1053.985596,495.520599 1059.145386,493.102661 
	C1064.029175,490.814087 1069.312378,491.320862 1074.200439,494.024750 
	C1080.562744,497.544128 1081.369507,513.752197 1073.769165,518.035828 
	C1072.503540,518.749084 1071.165039,519.333069 1069.427490,519.987183 
z"/>
<path fill="#FFFFFF" opacity="1.000000" stroke="none" 
	d="
M914.195435,502.479065 
	C921.578003,492.604004 931.776855,489.821198 940.781433,494.948792 
	C947.010559,498.496002 949.425781,504.534058 950.475037,511.050964 
	C951.954834,520.242676 951.488953,529.359131 946.018677,537.383057 
	C940.839844,544.979370 932.644409,545.117004 925.081665,543.699280 
	C917.815125,542.337158 913.814758,536.157654 912.164978,529.159058 
	C910.071899,520.279663 910.385254,511.391083 914.195435,502.479065 
z"/>
<path fill="#FFFFFF" opacity="1.000000" stroke="none" 
	d="
M679.697144,538.201355 
	C672.109070,526.367737 672.073730,514.145020 677.558411,502.159790 
	C681.635681,493.250031 690.231018,491.750061 698.916992,493.148285 
	C706.137573,494.310669 710.008057,499.549713 712.229187,506.514557 
	C715.031677,515.302246 714.756775,523.922119 711.771118,532.369446 
	C707.141052,545.469238 690.071533,548.600342 679.697144,538.201355 
z"/>
<path fill="#FFFFFF" opacity="1.000000" stroke="none" 
	d="
M151.994446,512.000000 
	C144.841064,512.000000 138.186752,512.000000 131.516006,512.000000 
	C132.565186,499.250000 139.361786,493.593811 146.622147,493.050049 
	C152.058273,492.642944 158.075256,492.137360 161.531494,497.294830 
	C164.295731,501.419739 165.692429,506.461060 168.087082,512.000000 
	C162.039108,512.000000 157.266312,512.000000 151.994446,512.000000 
z"/>
<path fill="#FFFFFF" opacity="1.000000" stroke="none" 
	d="
M1303.977539,512.000000 
	C1295.828247,512.000000 1288.174072,512.000000 1280.501709,512.000000 
	C1281.605957,499.132812 1288.440552,493.582581 1295.638306,493.048035 
	C1301.078857,492.643921 1307.092163,492.146759 1310.543701,497.307373 
	C1313.304443,501.435242 1314.696899,506.478394 1317.078125,512.000000 
	C1312.031006,512.000000 1308.251831,512.000000 1303.977539,512.000000 
z"/>
</svg>